<svg version="1.2" xmlns="http://www.w3.org/2000/svg" viewBox="0 0 48 48" width="48" height="48">
	<title>facebook-icon-svg</title>
	<style>
		.s0 { fill: #ffffff } 
	</style>
	<path id="Layer" class="s0" d="m24 3c-11.6 0-21 9.4-21 21 0 10.5 7.8 19.3 17.9 20.8q0.2 0 0.4-0.1 0.2 0 0.4-0.2 0.1-0.1 0.2-0.3 0.1-0.2 0.1-0.4v-14.5q0-0.2-0.1-0.4-0.1-0.2-0.2-0.3-0.1-0.2-0.3-0.3-0.2 0-0.4 0h-3.9v-3.3h3.9q0.2 0 0.4-0.1 0.2-0.1 0.3-0.2 0.1-0.1 0.2-0.3 0.1-0.2 0.1-0.4v-3.5q0 0 0 0 0 0 0 0 0 0 0 0 0 0 0 0c0-2.7 0.7-4.5 1.7-5.6 1.1-1.1 2.7-1.7 4.9-1.7 1.8 0 2.5 0.1 3.1 0.2v2.6h-2.2c-1.4 0-2.5 0.8-3 1.8-0.6 1-0.8 2.2-0.8 3.4v2.8q0 0.2 0.1 0.4 0 0.2 0.2 0.3 0.1 0.1 0.3 0.2 0.2 0.1 0.4 0.1h4.8l-0.5 3.3h-4.3q-0.2 0-0.4 0-0.2 0.1-0.3 0.3-0.2 0.1-0.2 0.3-0.1 0.2-0.1 0.4v10.5q0 0.4 0.3 0.7 0.3 0.3 0.7 0.3 0.4 0 0.7-0.3 0.3-0.3 0.3-0.7v-9.5h4.2q0.2 0 0.3-0.1 0.2-0.1 0.3-0.2 0.2-0.1 0.2-0.3 0.1-0.1 0.2-0.3l0.8-5.2q0-0.3-0.1-0.5 0-0.2-0.2-0.4-0.1-0.1-0.3-0.2-0.2-0.1-0.4-0.1h-5v-1.8q0 0 0 0 0 0 0 0 0 0 0 0 0 0 0 0c0-1 0.2-1.9 0.5-2.4 0.3-0.5 0.6-0.8 1.3-0.8h3.2q0.2 0 0.4 0 0.2-0.1 0.4-0.2 0.1-0.2 0.2-0.4 0-0.2 0-0.4v-4.5q0-0.2 0-0.4-0.1-0.2-0.2-0.3-0.1-0.1-0.3-0.2-0.1-0.1-0.3-0.1c-0.6-0.1-1.9-0.3-4.3-0.3-2.5 0-4.8 0.7-6.3 2.3-1.5 1.6-2.3 4-2.3 7v2.5h-3.9q-0.2 0-0.4 0.1-0.2 0.1-0.4 0.2-0.1 0.1-0.2 0.3 0 0.2 0 0.4v5.3q0 0.2 0 0.3 0.1 0.2 0.2 0.4 0.2 0.1 0.4 0.2 0.2 0.1 0.4 0.1h3.9v12.2c-8.6-1.8-15-9.4-15-18.5 0-10.5 8.5-19 19-19 10.5 0 19 8.5 19 19 0 9.6-7.2 17.6-16.4 18.8q-0.4 0.1-0.7 0.4-0.2 0.3-0.2 0.8 0.1 0.4 0.4 0.6 0.3 0.3 0.7 0.2c10.3-1.4 18.2-10.2 18.2-20.8 0-11.6-9.4-21-21-21z"/>
</svg>