<?xml version="1.0" encoding="UTF-8"?>
<svg xmlns="http://www.w3.org/2000/svg" xmlns:xlink="http://www.w3.org/1999/xlink" width="300px" height="149px" viewBox="0 0 299 149" version="1.1">
<g id="surface1">
<path style=" stroke:none;fill-rule:nonzero;fill:rgb(0%,0%,0%);fill-opacity:1;" d="M 72.4375 1.054688 C 68.257812 2.011719 65.171875 3.578125 62.394531 6.199219 C 56.039062 12.167969 53.984375 23.65625 57.394531 34.042969 C 59.027344 39.050781 61.085938 42.304688 65.007812 46.210938 C 70.148438 51.3125 76.617188 55.054688 85.496094 58.074219 C 88.929688 59.222656 87.667969 59.011719 82.527344 57.558594 C 73.582031 55.007812 65.96875 51.59375 58.75 46.84375 C 55.734375 44.878906 54.078125 43.636719 47.769531 38.699219 C 45.972656 37.296875 43.867188 35.730469 43.097656 35.238281 C 42.328125 34.722656 41.648438 34.300781 41.625 34.253906 C 41.578125 34.230469 41.8125 33.390625 42.164062 32.382812 C 42.699219 30.816406 42.769531 30.277344 42.699219 28.429688 C 42.632812 26.535156 42.539062 26.113281 41.765625 24.542969 C 41.207031 23.445312 39.898438 21.621094 38.167969 19.5625 C 33.101562 13.476562 32.445312 12.449219 32.121094 10.25 C 32.027344 9.640625 31.816406 8.960938 31.652344 8.75 C 31.394531 8.375 31.324219 8.398438 30.953125 8.984375 C 30.578125 9.570312 30.507812 10.226562 30.507812 14.578125 C 30.484375 19.070312 30.53125 19.703125 31.019531 21.363281 C 32.003906 24.777344 34.058594 28.21875 36.859375 31.167969 C 37.5625 31.914062 38.027344 32.523438 37.890625 32.523438 C 37.75 32.523438 36.558594 32.265625 35.226562 31.9375 C 32.210938 31.191406 29.222656 30.980469 26.511719 31.332031 C 25.367188 31.492188 24.246094 31.65625 24.035156 31.726562 C 23.710938 31.820312 23.664062 31.46875 23.664062 28.96875 C 23.664062 25.832031 23.382812 24.683594 22.261719 23.210938 C 21.140625 21.738281 18.335938 20.964844 17.707031 21.996094 C 17.425781 22.414062 17.402344 22.414062 17.121094 21.761719 C 16.914062 21.246094 16.679688 21.058594 16.234375 21.058594 C 15.835938 21.058594 15.558594 20.871094 15.371094 20.472656 C 15.066406 19.792969 14.367188 19.703125 14.039062 20.285156 C 13.851562 20.636719 13.734375 20.660156 13.339844 20.402344 C 12.542969 19.933594 12.378906 20.074219 12.378906 21.152344 C 12.378906 21.738281 12.265625 22.273438 12.148438 22.34375 C 11.796875 22.554688 11.867188 23.1875 12.285156 23.515625 C 12.589844 23.726562 12.683594 24.242188 12.707031 25.832031 C 12.730469 27.1875 12.824219 27.914062 13.035156 28.054688 C 13.246094 28.171875 13.175781 28.359375 12.753906 28.757812 C 12.285156 29.199219 12.242188 29.386719 12.378906 30.113281 C 12.707031 31.5625 14.15625 32.664062 16.445312 33.25 L 17.519531 33.507812 L 15.746094 34.300781 C 14.15625 34.980469 12.917969 35.707031 14.132812 35.214844 C 16.867188 34.160156 19.085938 33.460938 19.808594 33.460938 C 20.277344 33.460938 21.351562 33.25 22.191406 32.96875 C 23.289062 32.617188 24.574219 32.453125 26.863281 32.382812 L 30.015625 32.265625 L 28.382812 33.0625 C 26.140625 34.160156 24.902344 35.121094 24.222656 36.3125 C 23.382812 37.765625 23.265625 38.628906 23.710938 40.128906 C 24.011719 41.25 24.152344 41.414062 24.644531 41.414062 C 25.296875 41.414062 25.414062 41.765625 24.855469 41.976562 C 24.550781 42.09375 24.503906 42.304688 24.644531 42.960938 C 24.761719 43.589844 24.691406 43.917969 24.386719 44.246094 C 23.921875 44.761719 24.105469 45.394531 24.761719 45.394531 C 25.132812 45.394531 25.226562 45.554688 25.226562 46.09375 C 25.226562 46.890625 25.414062 46.9375 26.417969 46.445312 C 26.792969 46.234375 27.214844 46.140625 27.332031 46.210938 C 27.726562 46.46875 28.5 46.070312 28.5 45.648438 C 28.5 45.347656 29.035156 44.949219 30.25 44.363281 C 31.207031 43.894531 32.074219 43.332031 32.210938 43.097656 C 32.398438 42.773438 32.539062 42.75 33.125 42.960938 C 33.730469 43.191406 33.894531 43.144531 34.523438 42.5625 C 35.484375 41.671875 35.832031 40.503906 35.667969 38.746094 C 35.484375 36.875 34.710938 34.886719 33.707031 33.695312 C 33.242188 33.15625 32.914062 32.6875 32.984375 32.640625 C 33.03125 32.59375 34.011719 32.757812 35.15625 33.015625 C 39.171875 33.878906 42.675781 35.941406 54.355469 44.246094 C 68.652344 54.402344 71.457031 55.828125 81.875 58.402344 C 90.585938 60.53125 97.898438 61.492188 116.328125 62.941406 C 140.085938 64.789062 143.332031 65.257812 162.582031 69.609375 C 177.320312 72.957031 182.15625 73.890625 181.035156 73.261719 C 179.796875 72.535156 158.28125 67.058594 150.714844 65.539062 C 142.28125 63.832031 135.671875 62.941406 121.234375 61.539062 C 110.417969 60.484375 105.722656 59.921875 100.5625 59.058594 C 83.671875 56.226562 72.8125 51.5 65.265625 43.730469 C 63.117188 41.507812 62.042969 39.917969 60.59375 36.875 C 56.808594 28.875 55.96875 20.121094 58.398438 13.851562 C 60.429688 8.585938 65.03125 4.65625 71.128906 3.019531 C 73.535156 2.363281 78.417969 2.292969 80.988281 2.878906 C 87.878906 4.445312 93.671875 8.890625 96.378906 14.625 C 99.535156 21.339844 98.414062 28.03125 93.226562 33.554688 C 91.894531 34.933594 91.546875 35.402344 92.199219 34.910156 C 93.507812 33.878906 95.445312 31.726562 96.425781 30.207031 C 99.089844 26.066406 99.535156 20.425781 97.640625 15.441406 C 95.074219 8.820312 88.882812 3.300781 81.875 1.402344 C 79.445312 0.726562 74.609375 0.5625 72.4375 1.054688 Z M 72.4375 1.054688 "/>
<path style=" stroke:none;fill-rule:nonzero;fill:rgb(0%,0%,0%);fill-opacity:1;" d="M 173.09375 28.007812 C 166.597656 29.085938 161.949219 34.886719 160.898438 43.167969 C 160.058594 49.746094 163.140625 56.835938 169.800781 63.714844 C 174.773438 68.835938 179.027344 71.878906 188.976562 77.332031 C 194.234375 80.210938 199.488281 83.25 199.488281 83.414062 C 199.488281 83.460938 197.785156 82.664062 195.703125 81.660156 C 182.53125 75.296875 171.039062 73.585938 159.964844 76.394531 C 155.292969 77.589844 150.785156 79.71875 146.488281 82.757812 C 145.925781 83.15625 145.925781 83.15625 146.183594 82.664062 C 146.511719 82.058594 146.582031 82.082031 144.246094 81.355469 C 141.324219 80.441406 139.152344 80.1875 135.671875 80.324219 C 131.117188 80.511719 127.847656 81.589844 124.015625 84.164062 C 121.515625 85.847656 120.347656 86.972656 115.066406 92.75 C 106.355469 102.273438 104.394531 103.863281 100.09375 105.058594 C 99.066406 105.339844 98.132812 105.667969 98.015625 105.785156 C 97.222656 106.53125 103.714844 107.070312 109.460938 106.71875 C 116.726562 106.273438 122.261719 105.199219 125.859375 103.539062 C 127.984375 102.53125 131.09375 100.238281 133.988281 97.5 L 136.113281 95.464844 L 135.554688 96.867188 C 133.964844 100.824219 133.40625 106.320312 134.175781 110.230469 C 134.992188 114.324219 136.792969 117.574219 140.039062 120.875 C 147.863281 128.832031 158.773438 131.195312 169.261719 127.238281 C 178.183594 123.847656 183.347656 116.265625 182.53125 107.65625 L 182.34375 105.644531 L 182.179688 108.800781 C 182.0625 111.492188 181.921875 112.289062 181.269531 114.253906 C 179.121094 120.6875 174.214844 125.226562 167.371094 127.050781 C 164.707031 127.777344 159.894531 127.941406 157.136719 127.425781 C 151.253906 126.304688 145.714844 123.261719 141.371094 118.769531 C 132.449219 109.527344 133.359375 97.851562 143.777344 87.390625 C 148.519531 82.621094 153.960938 79.601562 160.710938 77.988281 C 164.101562 77.191406 170.570312 76.980469 174.496094 77.542969 C 186.082031 79.226562 197.691406 84.890625 213.972656 96.75 C 218.339844 99.957031 222.988281 103.515625 231.609375 110.324219 C 248.519531 123.683594 260.433594 131.566406 274.121094 138.519531 C 280.125 141.558594 291.78125 146.519531 292.132812 146.191406 C 292.179688 146.144531 290.964844 145.582031 289.46875 144.976562 C 277.742188 140.109375 263.585938 131.847656 249.757812 121.835938 C 245.15625 118.511719 239.035156 113.832031 237.261719 112.265625 L 236.375 111.492188 L 237.074219 109.972656 C 239.949219 103.769531 240.085938 95.535156 237.378906 90.199219 C 236.628906 88.703125 235.742188 87.390625 231.023438 80.839844 C 226.492188 74.570312 225.136719 72.558594 223.851562 70.289062 C 222.613281 68.113281 222.453125 67.550781 222.03125 64.390625 C 221.84375 62.941406 221.585938 61.585938 221.46875 61.375 C 221.308594 61.046875 221.214844 61.070312 220.910156 61.5625 C 220.441406 62.285156 219.484375 65.609375 218.878906 68.605469 C 217.570312 75.15625 217.21875 82.386719 218.035156 86.082031 C 219.039062 90.761719 221.308594 95.863281 224.320312 100.332031 L 226.117188 102.976562 L 224.296875 101.429688 C 209.953125 89.054688 205.726562 85.917969 191.570312 77.285156 C 178.488281 69.28125 174.097656 66.195312 169.847656 61.957031 C 164.542969 56.71875 162.183594 52.015625 161.949219 46.1875 C 161.695312 40.480469 163.328125 36.082031 166.878906 32.828125 C 170.195312 29.785156 174.84375 28.476562 179.191406 29.339844 C 182.015625 29.925781 183.886719 30.910156 185.824219 32.875 C 188.394531 35.425781 189.445312 38.164062 189.445312 42.140625 C 189.445312 46.609375 187.925781 49.652344 184.679688 51.757812 C 183.113281 52.761719 183.113281 52.949219 184.703125 52.039062 C 189.816406 49.019531 191.734375 41.484375 188.859375 35.800781 C 186.199219 30.558594 179.027344 27 173.09375 28.007812 Z M 173.09375 28.007812 "/>
<path style=" stroke:none;fill-rule:nonzero;fill:rgb(0%,0%,0%);fill-opacity:1;" d="M 6.65625 35.097656 C 4.179688 35.542969 2.875 36.5 2.21875 38.351562 C 1.753906 39.730469 1.773438 40.386719 2.335938 40.78125 C 2.804688 41.109375 2.804688 41.132812 2.125 41.25 C 1.589844 41.367188 1.425781 41.53125 1.355469 42.046875 C 1.308594 42.492188 1.074219 42.796875 0.652344 43.007812 C -0.117188 43.355469 -0.1875 43.871094 0.46875 44.222656 C 0.910156 44.457031 0.910156 44.527344 0.585938 44.996094 C 0.0703125 45.71875 0.140625 45.859375 1.027344 45.859375 C 1.449219 45.859375 2.101562 46.023438 2.476562 46.210938 C 3.058594 46.515625 3.175781 46.515625 3.574219 46.164062 C 3.925781 45.835938 4.367188 45.765625 5.839844 45.835938 C 6.84375 45.859375 7.871094 45.789062 8.152344 45.648438 C 8.527344 45.4375 8.667969 45.484375 8.96875 45.882812 C 9.25 46.304688 9.460938 46.375 10.160156 46.257812 C 10.652344 46.1875 11.28125 45.953125 11.585938 45.765625 C 12.777344 44.972656 14.015625 41.8125 14.015625 39.542969 C 14.015625 38.511719 13.5 35.894531 13.246094 35.660156 C 12.777344 35.167969 8.339844 34.816406 6.65625 35.097656 Z M 6.65625 35.097656 "/>
<path style=" stroke:none;fill-rule:nonzero;fill:rgb(0%,0%,0%);fill-opacity:1;" d="M 181.992188 105.199219 C 181.992188 105.457031 182.0625 105.527344 182.132812 105.339844 C 182.203125 105.175781 182.179688 104.964844 182.109375 104.894531 C 182.039062 104.800781 181.96875 104.941406 181.992188 105.199219 Z M 181.992188 105.199219 "/>
</g>
</svg>
