<svg version="1.2" xmlns="http://www.w3.org/2000/svg" viewBox="0 0 3307 4134" width="3307" height="4134">
	<title>noun-text-divider-2783096-svg</title>
	<style>
		tspan { white-space:pre } 
		.s0 { fill: #ffffff } 
	</style>
	<g id="Layer">
		<path id="Layer" fill-rule="evenodd" class="s0" d="m89.3 1928.8c-21.2 0-22.4-32.4 0-32.4h743.1c27.5 0 54.5-1.2 81.9-3.4 105.7-8.3 176.6-72.1 238.6-152 45.8-58.9 138.7-133.2 213.9-78.2 30.2 22.2 42.4 58.7 38.7 95.1 58.6-37.3 168-40.1 185.2 42.4 7.5 35.5-9.7 25.4 28.2 17 71.3-15.8 126.1 54.8 95.9 131.6-19.8 50.3-54 106.1-89.2 150.3-11.5 14.4-12.9 10.1 1 22.5 16.2 14.4 32.9 28 50.3 41.2 43.6 32.7 85 51.7 125.9 56.6 40.3 4.7 80.6-4.4 122.3-27.7 36.6-20.5 88.8-28.1 131-34.3 58.9-8.7 83.9-13.4 115.7-68.4 26.7-46.3 55.8-55.9 83.1-64.8 41.4-13.7 51.7-29.1 62.8-72.9 3.8-14.8 9-30 17-43.3 10.7-18.1 15.6-12.2-6.4-21.6-29.7-12.7-59.6-27-89.6-43-19.1-10.2-3.6-39.3 15.5-29.1 82.2 44 175.2 78.2 264.9 103.1 140.4 39.1 214-111 74-183.4-200.5-103.7-358.8-242.8-536.5-337.7-36.4-19.4-70-31.1-111.6-34.2-21.7-1.7-19.2-34.6 2.5-33 23.5 1.8 44.9 6 65.1 12.3 20 6.3 15.3 6.7 36.4 2.8 66.8-12.5 138.5-29 199.9-54.7 43.4-18.2 133.3-77.4 64-127.8-69.9-50.8-210.1-7-290.1 11.1-110.8 25-219.4 49.5-348.3 53.1-120.9 3.3-248.6 110.2-405.3 134.3-31.2 4.8-24.6-3.6-37.5 24.5-7.5 16.5-16.1 33.4-25.5 49.9-34.2 60.4-93.2 145-174.6 127.1-89.6-19.7-59.2-123.2-36.9-182.8 17.7-47.6 33-96.6 48.6-144.8 27.1-83.3 61.9-123.1 149-133.2 96.8-11.2 230.9-48.6 316.5-47.4 56 0.8 139 30.3 210.1 37 78.4 7.4 164.1 15.5 224.2 50.8 20.8 12.3 11.1 13.2 36 7.7 14.7-3.2 32.9-7.6 36.4-8.4 92.7-20.9 234.5-65.4 316.8-5.6 29.4 21.4 43.9 52.7 36.3 85.6-5.1 22.4-15.4 20.6 10.2 20.6h839.2c21.8 0 21.8 33.1 0 33.1h-866c-21.4 0-14.3-0.4-30.7 12.2-15.8 12-35.5 23.3-59.6 33.4-51.1 21.5-114.5 37.5-162.1 47.7-22.9 5-23.8 1.7-3.5 13.8 176.5 105.3 316.2 221.9 512.1 323.3 175.3 90.6 80.6 294.2-97.9 244.5-36.7-10.2-73.5-21.6-110.3-34.7-19.4-7-22.7-12.4-35.8 8.5-7.1 11.2-11.6 25.2-14.4 36.3-13.8 54.4-32.1 79-84.6 96.3-21.5 7-44.6 14.6-64.9 49.8-37.2 64.4-70.1 74.5-139.4 84.6-39.5 5.8-88.4 13-119.7 30.5-47.9 26.8-94.8 37.3-142.2 31.7-39.6-4.7-79.2-20.5-119.6-47.2-17.1-11.4-10.3-10.6-28.8-1.5-55.3 27.2-121.3 42.8-181.8 34-52.1-7.5-97.6-32.8-125.5-81.1-6.1-10.5-4.4-6.8-16.8-0.4-43.8 22.3-84.5 26.4-119.8 20.8-39.6-6.2-72.2-24.8-94.5-43.7-21-17.8-8.2-16.8-33-10.9-101.6 24.1-196.5-39.5-227.9-136.3-5.6-17.3-9.9-31.2-12.3-42.4-3.1-13.7-1.5-14.8-20.1-14.8zm177.6-108.4c-10.8 0-10.8-16.5 0-16.5h445.1c10.9 0 10.9 16.5 0 16.5zm2277.8-447c-10.9 0-10.9-16.5 0-16.5h486.8c10.9 0 10.9 16.5 0 16.5zm-921 789.5q-10.5-8.8-20.8-18c-12.8-11.5-7.7-10-20.2 1.6-7.5 7.1-15.1 12.7-22.4 17.3-18.1 11.9-36.3-15.6-18.2-27.6 53.1-35.3 118.6-140.3 141.8-199.3 30.2-76.8-47.1-125.6-114-50.4-42.5 68.7-105.8 150.5-161.2 207.2-10.8 10.9-21.4 20.6-31.9 29.2-10.4 8.4-11.8 5.4-5 17.2 22.1 38.5 59 58.7 101.6 64.8 49.3 7.2 103-4.4 149.1-24.6 18.2-8 15.7-5.3 1.2-17.4zm-289.8-271.9c-50.5 69.9-114 157.7-190.4 204.1-16.4 9.9-19.5 6.6-1.1 20 17.8 13.1 41.4 24.9 69.2 29.3 37.9 5.9 83.8-1.9 134-39 12.9-9.6 26.1-21.1 39.5-34.8 53.3-54.5 116.9-136.1 157.4-202.5 64.2-105.1-72.2-139.4-148.7-57.6-17.4 18.6-46.8 62.2-59.9 80.5zm13.3-201.6c-57.6-42.2-135.2 29.1-168.3 71.7-68.1 87.8-146.4 155.8-262.2 164.9-10.4 0.8-20.9 1.7-33 2.3-16 0.7-17.1 0.5-12.5 12.4 2.7 7.1 6 18.4 11.4 35.1 27.2 83.8 110 138.1 197.4 112.2 90.2-26.8 168-134.4 227.1-216.3 16.9-23.4 40.3-50.4 54.3-79.4 16.4-33.9 19.1-78.5-14.2-102.9zm-74.4-362.9c148.5-24.7 274.1-130 400.7-133.4 78.4-2.2 149.6-12.5 218.6-25.8 25.1-4.9 25.8-3.8-0.2-13.3-51-18.8-115.9-24.9-176.2-30.6-69.2-6.5-154.8-36.1-207.4-36.9-82.2-1.1-218 36.4-312.3 47.3-73.8 8.6-98.4 40-121.4 110.6-15.8 48.7-31.2 98.1-49.1 146.1-13.7 36.7-49.3 125.3 13 139 63.2 13.9 113.6-66.3 139-111.1 27.3-48.1 47.2-99.2 54.2-130.4 4.7-21.2 36.8-14.1 32.2 7.1-1.1 4.6-2.3 9.6-3.9 14.9-6.1 21.5-11.1 20.4 12.8 16.5z"/>
	</g>
</svg>