<svg version="1.2" xmlns="http://www.w3.org/2000/svg" viewBox="0 0 48 48" width="48" height="48">
	<title>icons8-twitter-svg</title>
	<style>
		.s0 { fill: #ffffff } 
	</style>
	<path id="Layer" fill-rule="evenodd" class="s0" d="m38.9 8.8c1.2-0.4 2.4-0.9 3.6-1.7 0.3-0.2 0.8-0.1 1.1 0.1 0.3 0.3 0.5 0.7 0.4 1.1q-0.4 1.1-1 2.1 0.2-0.1 0.4-0.2l0.2-0.1c0.4-0.2 0.8-0.1 1.1 0.2 0.3 0.3 0.4 0.8 0.2 1.1 0 0.1-0.8 1.7-2.9 3.7q0 0.4 0 0.9c0 4.9-1.7 11.2-5.6 16.5-3.9 5.3-10.2 9.5-18.9 9.5-5 0-8.5-1.1-10.7-2.2-2.3-1-3.4-2.3-3.4-2.3q-0.3-0.3-0.4-0.8 0-0.4 0.1-0.8 0.2-0.4 0.6-0.7 0.4-0.2 0.8-0.2c3.9 0 6.5-0.6 8.3-1.3-1.5-0.7-2.7-1.4-3.5-2.1-1.4-1.2-2.1-2.4-2.1-2.4q-0.2-0.3-0.2-0.6 0-0.4 0.1-0.7 0.2-0.3 0.4-0.5 0.3-0.3 0.6-0.4l0.5-0.1c-4-3-4.6-7.3-4.6-7.3q0-0.4 0.1-0.7 0.2-0.4 0.6-0.6 0.3-0.3 0.7-0.3 0.4 0 0.8 0.2c0 0 0.2 0 0.2 0-0.8-1.2-1.4-2.7-1.4-4.7 0-3.5 1.8-5.9 1.8-5.9q0.2-0.3 0.6-0.5 0.4-0.1 0.8-0.1 0.4 0.1 0.7 0.3 0.3 0.3 0.5 0.6c0 0 0.7 1.8 2.8 3.8 1.9 1.7 5 3.5 9.8 4.1 0.2-5.4 4.6-9.8 10-9.8 2.7 0 5.1 1.1 6.9 2.8zm-13.9 7.2v1.5q0 0.3-0.1 0.6-0.1 0.3-0.4 0.5-0.2 0.2-0.5 0.3-0.3 0.1-0.6 0.1c-6.4-0.3-10.7-2.8-13.2-5.1-0.9-0.8-1.3-1.5-1.8-2.2-0.2 0.6-0.4 1-0.4 1.8 0 4.2 3.2 5.7 3.2 5.7q0.4 0.2 0.7 0.7 0.2 0.4 0.1 0.9-0.2 0.5-0.6 0.9-0.4 0.3-0.9 0.3c-1.1 0-1.9-0.2-2.8-0.4 0.7 1.5 2.1 3.3 5.3 4.5q0.5 0.2 0.8 0.6 0.2 0.4 0.2 0.9 0 0.5-0.3 0.9-0.4 0.3-0.8 0.5l-1.6 0.3c1.1 1 2.8 2.1 5.6 2.7q0.4 0.1 0.7 0.4 0.3 0.3 0.4 0.8 0.1 0.4-0.1 0.8-0.1 0.4-0.4 0.6c0 0-1.2 1-3.3 1.8-1.2 0.5-2.9 0.9-4.8 1.2 1.8 0.7 4.3 1.4 8.1 1.4 7.8 0 13-3.6 16.5-8.3 3.4-4.7 5-10.6 5-14.7 0-3.9-3.1-7-7-7-3.9 0-7 3.1-7 7z"/>
</svg>